<?xml version="1.0" encoding="utf-8"?>
<!-- Generator: Adobe Illustrator 16.0.0, SVG Export Plug-In . SVG Version: 6.00 Build 0)  -->
<!DOCTYPE svg PUBLIC "-//W3C//DTD SVG 1.1//EN" "http://www.w3.org/Graphics/SVG/1.1/DTD/svg11.dtd">
<svg version="1.1" id="logo" xmlns="http://www.w3.org/2000/svg" xmlns:xlink="http://www.w3.org/1999/xlink" x="0px" y="0px"
	 width="227.792px" height="368.981px" viewBox="0 0 227.792 368.981" style="enable-background:new 0 0 227.792 368.981;"
	 xml:space="preserve">
<style type="text/css">
<![CDATA[
	.st0{fill:#FFF100;stroke:#FFFFFF;stroke-linejoin:round;stroke-miterlimit:10;}
	.st1{fill:#F39A00;stroke:#FFFFFF;stroke-linejoin:round;stroke-miterlimit:10;}
	.st2{fill:#FABF00;stroke:#FFFFFF;stroke-linejoin:round;stroke-miterlimit:10;}
	.st3{fill:#FFD900;stroke:#FFFFFF;stroke-linejoin:round;stroke-miterlimit:10;}
	.st4{fill:#F18900;stroke:#FFFFFF;stroke-linejoin:round;stroke-miterlimit:10;}
	.st5{fill:#F5A200;stroke:#FFFFFF;stroke-linejoin:round;stroke-miterlimit:10;}
	.st6{fill:#FFEA00;stroke:#FFFFFF;stroke-linejoin:round;stroke-miterlimit:10;}
	.st7{fill:#FCC800;stroke:#FFFFFF;stroke-linejoin:round;stroke-miterlimit:10;}
	.st8{fill:#F8B100;stroke:#FFFFFF;stroke-linejoin:round;stroke-miterlimit:10;}
	.st9{fill:#FDD100;stroke:#FFFFFF;stroke-linejoin:round;stroke-miterlimit:10;}
	.st10{fill:#FFE200;stroke:#FFFFFF;stroke-linejoin:round;stroke-miterlimit:10;}
	.st11{fill:#ED6F00;stroke:#FFFFFF;stroke-linejoin:round;stroke-miterlimit:10;}
	.st12{fill:#F08000;stroke:#FFFFFF;stroke-linejoin:round;stroke-miterlimit:10;}
	.st13{fill:#F29100;stroke:#FFFFFF;stroke-linejoin:round;stroke-miterlimit:10;}
	.st14{fill:#F6A900;stroke:#FFFFFF;stroke-linejoin:round;stroke-miterlimit:10;}
	.st15{fill:#EE7800;stroke:#FFFFFF;stroke-linejoin:round;stroke-miterlimit:10;}
]]>
</style>
<g>
	<polygon class="st2" points="66.232,65.812 40.521,80.656 14.81,95.5 14.81,65.812 14.81,36.125 40.521,50.968 	"/>
	<polygon class="st3" points="66.231,65.812 91.943,50.968 117.654,36.125 117.654,65.812 117.654,95.5 91.943,80.656 	"/>
	<polygon class="st8" points="14.81,95.557 40.521,80.713 66.232,65.869 66.232,95.557 66.232,125.245 40.521,110.401 	"/>
	<polygon class="st14" points="66.232,125.245 40.521,140.089 14.81,154.933 14.81,125.245 14.81,95.557 40.521,110.401 	"/>
	<polygon class="st5" points="14.81,154.989 40.521,140.146 66.232,125.302 66.232,154.989 66.232,184.677 40.521,169.833 	"/>
	<polygon class="st1" points="66.232,184.621 40.521,199.463 14.81,214.308 14.81,184.621 14.81,154.933 40.521,169.776 	"/>
	<polygon class="st7" points="66.232,184.62 91.943,169.776 117.654,154.933 117.654,184.62 117.654,214.308 91.943,199.463 	"/>
	<polygon class="st13" points="14.81,214.366 40.521,199.521 66.232,184.677 66.232,214.366 66.232,244.053 40.521,229.209 	"/>
	<polygon class="st8" points="117.654,214.366 91.943,229.209 66.232,244.053 66.232,214.366 66.232,184.677 91.943,199.521 	"/>
	<polygon class="st10" points="169.076,65.812 143.365,80.656 117.654,95.5 117.654,65.812 117.654,36.125 143.365,50.968 	"/>
	<polygon class="st9" points="117.654,36.125 91.943,50.969 66.232,65.812 66.232,36.125 66.232,6.437 91.943,21.281 	"/>
	<polygon class="st6" points="117.654,95.556 143.364,80.712 169.076,65.869 169.076,95.556 169.076,125.245 143.364,110.401 	"/>
	<polygon class="st0" points="220.498,95.558 194.789,110.402 169.078,125.245 169.078,95.558 169.076,65.87 194.789,80.713 	"/>
	<polygon class="st4" points="66.232,244.053 40.521,258.897 14.81,273.741 14.81,244.053 14.81,214.366 40.521,229.209 	"/>
	<polygon class="st12" points="14.81,273.797 40.521,258.954 66.232,244.11 66.232,273.797 66.232,303.485 40.521,288.642 	"/>
	<polygon class="st7" points="14.81,36.124 40.52,21.279 66.231,6.437 66.231,36.124 66.232,65.812 40.52,50.968 	"/>
	<polygon class="st3" points="169.076,184.678 143.367,199.522 117.656,214.366 117.656,184.678 117.654,154.99 143.367,169.833 	
		"/>
	<polygon class="st15" points="66.232,303.486 40.521,318.331 14.81,333.172 14.81,303.486 14.81,273.797 40.521,288.642 	"/>
	<polygon class="st11" points="14.81,333.172 40.521,318.331 66.232,303.486 66.232,333.172 66.232,362.862 40.521,348.018 	"/>
</g>
</svg>
